<svg width="54" height="54" viewBox="0 0 54 54" fill="none" xmlns="http://www.w3.org/2000/svg">
<g filter="url(#filter0_d_1_447)">
<rect x="9" y="9" width="36" height="36" rx="9.24998" fill="url(#paint0_linear_1_447)" fill-opacity="0.35" shape-rendering="crispEdges"/>
<rect x="9.66071" y="9.66071" width="34.6786" height="34.6786" rx="8.58927" stroke="url(#paint1_linear_1_447)" stroke-opacity="0.3" stroke-width="1.32143" shape-rendering="crispEdges"/>
</g>
<path fill-rule="evenodd" clip-rule="evenodd" d="M24.0943 19.3278C23.6156 19.3278 23.2275 18.9397 23.2275 18.461V16.4383C23.2275 15.9596 23.6156 15.5715 24.0943 15.5715C24.5731 15.5715 24.9612 15.9596 24.9612 16.4383V18.461C24.9612 18.9397 24.5731 19.3278 24.0943 19.3278ZM30.7412 22.9379L22.9396 22.9379L22.9396 30.7395L30.7412 30.7395L30.7412 22.9379ZM22.9396 21.2042C21.9821 21.2042 21.2059 21.9804 21.2059 22.9379V30.7395C21.2059 31.697 21.9821 32.4732 22.9396 32.4732H30.7412C31.6987 32.4732 32.4749 31.697 32.4749 30.7395V22.9379C32.4749 21.9804 31.6987 21.2042 30.7412 21.2042H22.9396ZM23.2275 37.2425C23.2275 37.7212 23.6156 38.1093 24.0943 38.1093C24.5731 38.1093 24.9612 37.7212 24.9612 37.2425V35.2198C24.9612 34.7411 24.5731 34.353 24.0943 34.353C23.6156 34.353 23.2275 34.7411 23.2275 35.2198V37.2425ZM29.7289 19.3278C29.2502 19.3278 28.8621 18.9397 28.8621 18.461V16.4383C28.8621 15.9596 29.2502 15.5715 29.7289 15.5715C30.2076 15.5715 30.5957 15.9596 30.5957 16.4383V18.461C30.5957 18.9397 30.2076 19.3278 29.7289 19.3278ZM28.8621 37.2425C28.8621 37.7212 29.2502 38.1093 29.7289 38.1093C30.2076 38.1093 30.5957 37.7212 30.5957 37.2425V35.2198C30.5957 34.7411 30.2076 34.353 29.7289 34.353C29.2502 34.353 28.8621 34.7411 28.8621 35.2198V37.2425ZM15.5715 24.0975C15.5715 23.6188 15.9596 23.2307 16.4383 23.2307H18.461C18.9397 23.2307 19.3278 23.6188 19.3278 24.0975C19.3278 24.5763 18.9397 24.9644 18.461 24.9644H16.4383C15.9596 24.9644 15.5715 24.5763 15.5715 24.0975ZM35.2211 23.2307C34.7424 23.2307 34.3543 23.6188 34.3543 24.0975C34.3543 24.5763 34.7424 24.9644 35.2211 24.9644H37.2437C37.7225 24.9644 38.1106 24.5763 38.1106 24.0975C38.1106 23.6188 37.7225 23.2307 37.2437 23.2307H35.2211ZM34.3543 29.7286C34.3543 29.2498 34.7424 28.8617 35.2211 28.8617H37.2437C37.7225 28.8617 38.1106 29.2498 38.1106 29.7286C38.1106 30.2073 37.7225 30.5954 37.2437 30.5954H35.2211C34.7424 30.5954 34.3543 30.2073 34.3543 29.7286ZM16.4383 28.8617C15.9596 28.8617 15.5715 29.2498 15.5715 29.7286C15.5715 30.2073 15.9596 30.5954 16.4383 30.5954H18.461C18.9397 30.5954 19.3278 30.2073 19.3278 29.7286C19.3278 29.2498 18.9397 28.8617 18.461 28.8617H16.4383Z" fill="url(#paint2_linear_1_447)"/>
<defs>
<filter id="filter0_d_1_447" x="0.328139" y="0.328139" width="53.3437" height="53.3437" filterUnits="userSpaceOnUse" color-interpolation-filters="sRGB">
<feFlood flood-opacity="0" result="BackgroundImageFix"/>
<feColorMatrix in="SourceAlpha" type="matrix" values="0 0 0 0 0 0 0 0 0 0 0 0 0 0 0 0 0 0 127 0" result="hardAlpha"/>
<feOffset/>
<feGaussianBlur stdDeviation="4.33593"/>
<feComposite in2="hardAlpha" operator="out"/>
<feColorMatrix type="matrix" values="0 0 0 0 0 0 0 0 0 0 0 0 0 0 0 0 0 0 0.4 0"/>
<feBlend mode="normal" in2="BackgroundImageFix" result="effect1_dropShadow_1_447"/>
<feBlend mode="normal" in="SourceGraphic" in2="effect1_dropShadow_1_447" result="shape"/>
</filter>
<linearGradient id="paint0_linear_1_447" x1="27" y1="9" x2="27" y2="45" gradientUnits="userSpaceOnUse">
<stop stop-color="#284A90"/>
<stop offset="1" stop-color="#284A90" stop-opacity="0.4"/>
</linearGradient>
<linearGradient id="paint1_linear_1_447" x1="27" y1="9" x2="27" y2="45" gradientUnits="userSpaceOnUse">
<stop stop-color="#749FF6"/>
<stop offset="0.430493" stop-color="#153984"/>
</linearGradient>
<linearGradient id="paint2_linear_1_447" x1="26.8449" y1="15.0873" x2="26.8449" y2="38.5957" gradientUnits="userSpaceOnUse">
<stop stop-color="#8096CC"/>
<stop offset="1" stop-color="#8096CB" stop-opacity="0.5"/>
</linearGradient>
</defs>
</svg>
