<svg width="107" height="80" viewBox="0 0 82 72" fill="none" xmlns="http://www.w3.org/2000/svg">
    <g opacity="0.8" filter="url(#filter0_f_1_477)">
        <circle cx="41" cy="40.9999" r="11" fill="#0054FF"/>
    </g>
    <g filter="url(#filter1_d_1_477)">
        <rect x="23" y="23" width="36" height="36" rx="7" fill="url(#paint0_linear_1_477)" fill-opacity="0.35" shape-rendering="crispEdges"/>
        <rect x="23.5" y="23.5" width="35" height="35" rx="6.5" stroke="url(#paint1_linear_1_477)" stroke-opacity="0.3" shape-rendering="crispEdges"/>
    </g>
    <path fill-rule="evenodd" clip-rule="evenodd" d="M40.625 33.3556C42.346 33.2708 44.0451 33.7698 45.447 34.7716C46.6642 35.6415 47.5953 36.8461 48.1318 38.2322L45.7298 37.1864C45.4035 37.0444 45.024 37.1937 44.882 37.52C44.7399 37.8462 44.8892 38.2257 45.2155 38.3678L49.027 40.0272C49.1963 40.1008 49.389 40.0984 49.5563 40.0204C49.7236 39.9424 49.8494 39.7964 49.9019 39.6195L51.0737 35.6635C51.1747 35.3223 50.9801 34.9639 50.639 34.8628C50.2978 34.7618 49.9394 34.9564 49.8383 35.2975L49.2019 37.4461C48.5599 35.9616 47.5236 34.6721 46.1961 33.7234C44.558 32.5527 42.5725 31.9697 40.5616 32.0688C38.5506 32.1679 36.6321 32.9433 35.117 34.2693C33.602 35.5954 32.5792 37.3943 32.2146 39.3744C32.1502 39.7243 32.3816 40.0602 32.7315 40.1247C33.0814 40.1891 33.4173 39.9577 33.4817 39.6078C33.7938 37.9132 34.669 36.3737 35.9656 35.2389C37.2622 34.104 38.904 33.4404 40.625 33.3556ZM49.2682 41.8702C49.6181 41.9347 49.8495 42.2705 49.7851 42.6204C49.4205 44.6006 48.3977 46.3995 46.8827 47.7255C45.3676 49.0516 43.4491 49.827 41.4381 49.9261C39.4272 50.0252 37.4417 49.4422 35.8036 48.2715C34.4647 47.3147 33.4221 46.0112 32.7815 44.5106L32.3971 46.9375C32.3414 47.2889 32.0114 47.5286 31.66 47.473C31.3086 47.4173 31.0689 47.0873 31.1245 46.7359L31.77 42.6608C31.7988 42.4785 31.9045 42.3173 32.0602 42.2182C32.2159 42.1191 32.4067 42.0915 32.5841 42.1424L36.5797 43.2901C36.9216 43.3883 37.1192 43.7452 37.021 44.0871C36.9227 44.4291 36.5659 44.6267 36.2239 44.5285L33.9076 43.8631C34.4497 45.2069 35.365 46.3745 36.5527 47.2233C37.9546 48.2251 39.6537 48.7241 41.3747 48.6393C43.0957 48.5545 44.7376 47.8908 46.0341 46.756C47.3307 45.6212 48.2059 44.0817 48.518 42.3871C48.5824 42.0372 48.9183 41.8058 49.2682 41.8702Z" fill="url(#paint2_linear_1_477)"/>
    <defs>
        <filter id="filter0_f_1_477" x="-3.05176e-05" y="-0.00012207" width="82" height="82" filterUnits="userSpaceOnUse" color-interpolation-filters="sRGB">
            <feFlood flood-opacity="0" result="BackgroundImageFix"/>
            <feBlend mode="normal" in="SourceGraphic" in2="BackgroundImageFix" result="shape"/>
            <feGaussianBlur stdDeviation="15" result="effect1_foregroundBlur_1_477"/>
        </filter>
        <filter id="filter1_d_1_477" x="16.4375" y="16.4375" width="49.125" height="49.125" filterUnits="userSpaceOnUse" color-interpolation-filters="sRGB">
            <feFlood flood-opacity="0" result="BackgroundImageFix"/>
            <feColorMatrix in="SourceAlpha" type="matrix" values="0 0 0 0 0 0 0 0 0 0 0 0 0 0 0 0 0 0 127 0" result="hardAlpha"/>
            <feOffset/>
            <feGaussianBlur stdDeviation="3.28125"/>
            <feComposite in2="hardAlpha" operator="out"/>
            <feColorMatrix type="matrix" values="0 0 0 0 0 0 0 0 0 0 0 0 0 0 0 0 0 0 0.4 0"/>
            <feBlend mode="normal" in2="BackgroundImageFix" result="effect1_dropShadow_1_477"/>
            <feBlend mode="normal" in="SourceGraphic" in2="effect1_dropShadow_1_477" result="shape"/>
        </filter>
        <linearGradient id="paint0_linear_1_477" x1="41" y1="23" x2="41" y2="59" gradientUnits="userSpaceOnUse">
            <stop stop-color="#284A90"/>
            <stop offset="1" stop-color="#284A90" stop-opacity="0.4"/>
        </linearGradient>
        <linearGradient id="paint1_linear_1_477" x1="41" y1="23" x2="41" y2="59" gradientUnits="userSpaceOnUse">
            <stop stop-color="#749FF6"/>
            <stop offset="0.430493" stop-color="#153984"/>
        </linearGradient>
        <linearGradient id="paint2_linear_1_477" x1="41.1119" y1="31.6738" x2="41.1119" y2="50.3228" gradientUnits="userSpaceOnUse">
            <stop stop-color="#8096CB"/>
            <stop offset="1" stop-color="#8096CB" stop-opacity="0.5"/>
        </linearGradient>
    </defs>
</svg>
