<svg width="160" height="160" viewBox="0 0 160 160" fill="none" xmlns="http://www.w3.org/2000/svg">
<g filter="url(#filter0_f_1_97)">
<circle cx="80" cy="80" r="20" fill="#0054FF"/>
</g>
<g filter="url(#filter1_d_1_97)">
<rect x="48.0001" y="48.002" width="64" height="64" rx="16" fill="#7495D9" fill-opacity="0.08" shape-rendering="crispEdges"/>
<rect x="48.5001" y="48.502" width="63" height="63" rx="15.5" stroke="url(#paint0_linear_1_97)" stroke-opacity="0.3" shape-rendering="crispEdges"/>
</g>
<mask id="mask0_1_97" style="mask-type:alpha" maskUnits="userSpaceOnUse" x="62" y="62" width="36" height="36">
<path fill-rule="evenodd" clip-rule="evenodd" d="M80 98C89.9411 98 98 89.9411 98 80C98 79.9499 97.9998 79.8999 97.9994 79.85C97.9336 86.2703 92.7086 91.4547 86.2727 91.4547C79.7959 91.4547 74.5455 86.2042 74.5455 79.7274C74.5455 73.2506 79.7959 68.0001 86.2727 68.0001C92.3663 68.0001 97.3743 72.6476 97.9457 78.5913C97.2271 69.3086 89.4671 62 80 62C70.0589 62 62 70.0589 62 80C62 89.9411 70.0589 98 80 98Z" fill="#D9D9D9"/>
</mask>
<g mask="url(#mask0_1_97)">
<path fill-rule="evenodd" clip-rule="evenodd" d="M42.9091 87.3634L85.1818 45.0907L85.9532 45.8621L43.6804 88.1348L42.9091 87.3634ZM44.4517 88.9065L86.7244 46.6337L87.4958 47.4051L45.223 89.6778L44.4517 88.9065ZM88.2673 48.1759L45.9945 90.4486L46.7659 91.22L89.0386 48.9473L88.2673 48.1759ZM47.5373 91.9918L89.8101 49.7191L90.5814 50.4905L48.3087 92.7632L47.5373 91.9918ZM92.8955 52.8047L50.6228 95.0774L51.3942 95.8488L93.6669 53.5761L92.8955 52.8047ZM53.7084 98.1625L95.9811 55.8897L96.7525 56.6611L54.4798 98.9339L53.7084 98.1625ZM99.0667 58.9759L56.7939 101.249L57.5653 102.02L99.838 59.7472L99.0667 58.9759ZM59.8795 104.334L102.152 62.0615L102.924 62.8329L60.6509 105.106L59.8795 104.334ZM105.238 65.1466L62.965 107.419L63.7364 108.191L106.009 65.918L105.238 65.1466ZM66.0507 110.505L108.323 68.2323L109.095 69.0037L66.8221 111.276L66.0507 110.505ZM111.409 71.3182L69.1361 113.591L69.9075 114.362L112.18 72.0896L111.409 71.3182ZM72.2217 116.676L114.494 74.4034L115.266 75.1748L72.9931 117.448L72.2217 116.676ZM91.3528 51.2617L49.08 93.5345L49.8514 94.3059L92.1242 52.0331L91.3528 51.2617ZM52.1655 96.6203L94.4382 54.3476L95.2096 55.119L52.9369 97.3917L52.1655 96.6203ZM97.5239 57.4329L55.2512 99.7056L56.0226 100.477L98.2953 58.2043L97.5239 57.4329ZM58.3366 102.791L100.609 60.5186L101.381 61.29L59.108 103.563L58.3366 102.791ZM103.695 63.6036L61.4223 105.876L62.1937 106.648L104.466 64.375L103.695 63.6036ZM64.5078 108.962L106.781 66.6897L107.552 67.4611L65.2792 109.734L64.5078 108.962ZM109.866 69.7753L67.5934 112.048L68.3648 112.819L110.638 70.5467L109.866 69.7753ZM70.6789 115.133L112.952 72.8604L113.723 73.6318L71.4502 115.905L70.6789 115.133ZM116.037 75.9461L73.7646 118.219L74.536 118.99L116.809 76.7175L116.037 75.9461Z" fill="url(#paint1_linear_1_97)"/>
</g>
<g opacity="0.6">
<mask id="mask1_1_97" style="mask-type:alpha" maskUnits="userSpaceOnUse" x="62" y="62" width="36" height="36">
<path fill-rule="evenodd" clip-rule="evenodd" d="M80 98C89.9411 98 98 89.9411 98 80C98 70.0589 89.9411 62 80 62C70.5323 62 62.7719 69.3095 62.0542 78.5931C62.6247 72.6485 67.6332 68.0001 73.7273 68.0001C80.2041 68.0001 85.4546 73.2506 85.4546 79.7274C85.4546 86.2042 80.2041 91.4547 73.7273 91.4547C67.2908 91.4547 62.0654 86.2694 62.0006 79.8482C62.0002 79.8988 62 79.9494 62 80C62 89.9411 70.0589 98 80 98Z" fill="#D9D9D9"/>
</mask>
<g mask="url(#mask1_1_97)">
<path fill-rule="evenodd" clip-rule="evenodd" d="M43.0665 87.3634L85.3393 45.0907L86.1106 45.8621L43.8379 88.1348L43.0665 87.3634ZM44.6091 88.9065L86.8819 46.6337L87.6532 47.4051L45.3805 89.6778L44.6091 88.9065ZM88.4247 48.1759L46.152 90.4486L46.9234 91.22L89.1961 48.9473L88.4247 48.1759ZM47.6948 91.9918L89.9675 49.7191L90.7389 50.4905L48.4662 92.7632L47.6948 91.9918ZM93.053 52.8047L50.7802 95.0774L51.5516 95.8488L93.8244 53.5761L93.053 52.8047ZM53.8659 98.1625L96.1386 55.8897L96.91 56.6611L54.6373 98.9339L53.8659 98.1625ZM99.2241 58.9759L56.9514 101.249L57.7228 102.02L99.9955 59.7472L99.2241 58.9759ZM60.037 104.334L102.31 62.0615L103.081 62.8329L60.8084 105.106L60.037 104.334ZM105.395 65.1466L63.1225 107.419L63.8938 108.191L106.167 65.918L105.395 65.1466ZM66.2082 110.505L108.481 68.2323L109.252 69.0037L66.9795 111.276L66.2082 110.505ZM111.566 71.3182L69.2936 113.591L70.065 114.362L112.338 72.0896L111.566 71.3182ZM72.3792 116.676L114.652 74.4034L115.423 75.1748L73.1506 117.448L72.3792 116.676ZM91.5102 51.2617L49.2375 93.5345L50.0089 94.3059L92.2816 52.0331L91.5102 51.2617ZM52.323 96.6203L94.5957 54.3476L95.3671 55.119L53.0944 97.3917L52.323 96.6203ZM97.6814 57.4329L55.4087 99.7056L56.1801 100.477L98.4528 58.2043L97.6814 57.4329ZM58.4941 102.791L100.767 60.5186L101.538 61.29L59.2655 103.563L58.4941 102.791ZM103.852 63.6036L61.5797 105.876L62.3511 106.648L104.624 64.375L103.852 63.6036ZM64.6653 108.962L106.938 66.6897L107.709 67.4611L65.4367 109.734L64.6653 108.962ZM110.024 69.7753L67.7509 112.048L68.5222 112.819L110.795 70.5467L110.024 69.7753ZM70.8363 115.133L113.109 72.8604L113.88 73.6318L71.6077 115.905L70.8363 115.133ZM116.195 75.9461L73.922 118.219L74.6934 118.99L116.966 76.7175L116.195 75.9461Z" fill="url(#paint2_linear_1_97)"/>
</g>
</g>
<defs>
<filter id="filter0_f_1_97" x="0" y="0" width="160" height="160" filterUnits="userSpaceOnUse" color-interpolation-filters="sRGB">
<feFlood flood-opacity="0" result="BackgroundImageFix"/>
<feBlend mode="normal" in="SourceGraphic" in2="BackgroundImageFix" result="shape"/>
<feGaussianBlur stdDeviation="30" result="effect1_foregroundBlur_1_97"/>
</filter>
<filter id="filter1_d_1_97" x="33.0001" y="33.002" width="94" height="94" filterUnits="userSpaceOnUse" color-interpolation-filters="sRGB">
<feFlood flood-opacity="0" result="BackgroundImageFix"/>
<feColorMatrix in="SourceAlpha" type="matrix" values="0 0 0 0 0 0 0 0 0 0 0 0 0 0 0 0 0 0 127 0" result="hardAlpha"/>
<feOffset/>
<feGaussianBlur stdDeviation="7.5"/>
<feComposite in2="hardAlpha" operator="out"/>
<feColorMatrix type="matrix" values="0 0 0 0 0 0 0 0 0 0 0 0 0 0 0 0 0 0 0.4 0"/>
<feBlend mode="normal" in2="BackgroundImageFix" result="effect1_dropShadow_1_97"/>
<feBlend mode="normal" in="SourceGraphic" in2="effect1_dropShadow_1_97" result="shape"/>
</filter>
<linearGradient id="paint0_linear_1_97" x1="80.0001" y1="48.002" x2="80.0001" y2="112.002" gradientUnits="userSpaceOnUse">
<stop stop-color="#749FF6"/>
<stop offset="0.430493" stop-color="#153984"/>
</linearGradient>
<linearGradient id="paint1_linear_1_97" x1="79.8589" y1="45.0907" x2="79.8589" y2="118.99" gradientUnits="userSpaceOnUse">
<stop stop-color="#84ACFF"/>
<stop offset="1" stop-color="#3D79F5" stop-opacity="0.12"/>
</linearGradient>
<linearGradient id="paint2_linear_1_97" x1="80.0164" y1="45.0907" x2="80.0164" y2="118.99" gradientUnits="userSpaceOnUse">
<stop stop-color="#84ACFF"/>
<stop offset="1" stop-color="#3D79F5" stop-opacity="0.12"/>
</linearGradient>
</defs>
</svg>
