<svg width="50" height="50" viewBox="0 0 50 50" fill="none" xmlns="http://www.w3.org/2000/svg">
<g filter="url(#filter0_d_1_479)">
<rect x="7" y="7" width="36" height="36" rx="7" fill="url(#paint0_linear_1_479)" fill-opacity="0.35" shape-rendering="crispEdges"/>
<rect x="7.5" y="7.5" width="35" height="35" rx="6.5" stroke="url(#paint1_linear_1_479)" stroke-opacity="0.3" shape-rendering="crispEdges"/>
</g>
<path fill-rule="evenodd" clip-rule="evenodd" d="M24.625 17.3556C26.346 17.2708 28.0451 17.7698 29.447 18.7716C30.6642 19.6415 31.5953 20.8461 32.1318 22.2322L29.7298 21.1864C29.4035 21.0444 29.024 21.1937 28.882 21.52C28.7399 21.8462 28.8892 22.2257 29.2155 22.3678L33.027 24.0272C33.1963 24.1008 33.389 24.0984 33.5563 24.0204C33.7236 23.9424 33.8494 23.7964 33.9019 23.6195L35.0737 19.6635C35.1747 19.3223 34.9801 18.9639 34.639 18.8628C34.2978 18.7618 33.9394 18.9564 33.8383 19.2975L33.2019 21.4461C32.5599 19.9616 31.5236 18.6721 30.1961 17.7234C28.558 16.5527 26.5725 15.9697 24.5616 16.0688C22.5506 16.1679 20.6321 16.9433 19.117 18.2693C17.602 19.5954 16.5792 21.3943 16.2146 23.3744C16.1502 23.7243 16.3816 24.0602 16.7315 24.1247C17.0814 24.1891 17.4173 23.9577 17.4817 23.6078C17.7938 21.9132 18.669 20.3737 19.9656 19.2389C21.2622 18.104 22.904 17.4404 24.625 17.3556ZM33.2682 25.8702C33.6181 25.9347 33.8495 26.2705 33.7851 26.6204C33.4205 28.6006 32.3977 30.3995 30.8827 31.7255C29.3676 33.0516 27.4491 33.827 25.4381 33.9261C23.4272 34.0252 21.4417 33.4422 19.8036 32.2715C18.4647 31.3147 17.4221 30.0112 16.7815 28.5106L16.3971 30.9375C16.3414 31.2889 16.0114 31.5286 15.66 31.473C15.3086 31.4173 15.0689 31.0873 15.1245 30.7359L15.77 26.6608C15.7988 26.4785 15.9045 26.3173 16.0602 26.2182C16.2159 26.1191 16.4067 26.0915 16.5841 26.1424L20.5797 27.2901C20.9216 27.3883 21.1192 27.7452 21.021 28.0871C20.9227 28.4291 20.5659 28.6267 20.2239 28.5285L17.9076 27.8631C18.4497 29.2069 19.365 30.3745 20.5527 31.2233C21.9546 32.2251 23.6537 32.7241 25.3747 32.6393C27.0957 32.5545 28.7376 31.8908 30.0341 30.756C31.3307 29.6212 32.2059 28.0817 32.518 26.3871C32.5824 26.0372 32.9183 25.8058 33.2682 25.8702Z" fill="url(#paint2_linear_1_479)"/>
<defs>
<filter id="filter0_d_1_479" x="0.4375" y="0.4375" width="49.125" height="49.125" filterUnits="userSpaceOnUse" color-interpolation-filters="sRGB">
<feFlood flood-opacity="0" result="BackgroundImageFix"/>
<feColorMatrix in="SourceAlpha" type="matrix" values="0 0 0 0 0 0 0 0 0 0 0 0 0 0 0 0 0 0 127 0" result="hardAlpha"/>
<feOffset/>
<feGaussianBlur stdDeviation="3.28125"/>
<feComposite in2="hardAlpha" operator="out"/>
<feColorMatrix type="matrix" values="0 0 0 0 0 0 0 0 0 0 0 0 0 0 0 0 0 0 0.4 0"/>
<feBlend mode="normal" in2="BackgroundImageFix" result="effect1_dropShadow_1_479"/>
<feBlend mode="normal" in="SourceGraphic" in2="effect1_dropShadow_1_479" result="shape"/>
</filter>
<linearGradient id="paint0_linear_1_479" x1="25" y1="7" x2="25" y2="43" gradientUnits="userSpaceOnUse">
<stop stop-color="#284A90"/>
<stop offset="1" stop-color="#284A90" stop-opacity="0.4"/>
</linearGradient>
<linearGradient id="paint1_linear_1_479" x1="25" y1="7" x2="25" y2="43" gradientUnits="userSpaceOnUse">
<stop stop-color="#749FF6"/>
<stop offset="0.430493" stop-color="#153984"/>
</linearGradient>
<linearGradient id="paint2_linear_1_479" x1="25.1119" y1="15.6738" x2="25.1119" y2="34.3228" gradientUnits="userSpaceOnUse">
<stop stop-color="#8096CB"/>
<stop offset="1" stop-color="#8096CB" stop-opacity="0.5"/>
</linearGradient>
</defs>
</svg>
